<svg width="16" height="16" viewBox="0 0 16 16" fill="none" xmlns="http://www.w3.org/2000/svg">
<path d="M14.3333 12L9.90476 7.99996M6.09523 7.99996L1.66668 12M1.33333 4.66663L6.77661 8.47692C7.21739 8.78547 7.43778 8.93974 7.6775 8.9995C7.88926 9.05228 8.11073 9.05228 8.32249 8.9995C8.56221 8.93974 8.7826 8.78547 9.22338 8.47692L14.6667 4.66663M4.53333 13.3333H11.4667C12.5868 13.3333 13.1468 13.3333 13.5746 13.1153C13.951 12.9236 14.2569 12.6176 14.4487 12.2413C14.6667 11.8135 14.6667 11.2534 14.6667 10.1333V5.86663C14.6667 4.74652 14.6667 4.18647 14.4487 3.75865C14.2569 3.38232 13.951 3.07636 13.5746 2.88461C13.1468 2.66663 12.5868 2.66663 11.4667 2.66663H4.53333C3.41322 2.66663 2.85317 2.66663 2.42535 2.88461C2.04902 3.07636 1.74306 3.38232 1.55132 3.75865C1.33333 4.18647 1.33333 4.74652 1.33333 5.86663V10.1333C1.33333 11.2534 1.33333 11.8135 1.55132 12.2413C1.74306 12.6176 2.04902 12.9236 2.42535 13.1153C2.85317 13.3333 3.41322 13.3333 4.53333 13.3333Z" stroke="#D6BBFB" stroke-width="2" stroke-linecap="round" stroke-linejoin="round"/>
</svg>
